<svg id="Слой_1" data-name="Слой 1" xmlns="http://www.w3.org/2000/svg" viewBox="0 0 500 500"><defs><style>.cls-1{fill:#833978;}.cls-2{fill:#e6f0f6;}</style></defs><title>favicon</title><circle class="cls-1" cx="250" cy="250" r="250"/><path class="cls-2" d="M331,404.38l-.05-.44c-6.17-26.9-63-46.42-135.1-46.42S66.89,377,60.7,403.94l-.59,26.42c0,29.28,58.34,51.31,135.69,51.31s135.68-22.09,135.68-51.36ZM195.81,471c-73.7,0-125.06-21.44-125.06-40.67a8.43,8.43,0,0,1,.06-1c20.71,18.78,69,30.77,125,30.77s104.28-12,125-30.77c0,.34.06.67.07,1,0,19.27-51.37,40.68-125.06,40.68Zm0-102.88c73.69,0,125.05,21.43,125.05,40.67a8.22,8.22,0,0,1-.06,1c-20.72-18.79-69-30.75-125-30.75s-104.3,12-125,30.75c0-.34,0-.67,0-1,0-19.26,51.36-40.66,125.06-40.66Zm0,81.33c-63.38,0-105.92-15.23-119.82-29.9,13.87-14.63,56.43-29.89,119.82-29.89s105.92,15.24,119.82,29.89c-13.9,14.67-56.44,29.9-119.82,29.9Z" transform="translate(-6.36 -21.92)"/><path class="cls-2" d="M188.72,296.73s-13.41,29.13-13.41,32.81a13.53,13.53,0,0,0,27.05.65v-.65C202.36,325.8,188.72,296.73,188.72,296.73Z" transform="translate(-6.36 -21.92)"/><path class="cls-2" d="M335.26,132.33,219.35,232.05c-17,14.39-24,25.73-21.91,35.61l-10.94,9.06c-2.89,2.41-2.5,6.84,1,11,2.19,2.63,4.91,4.22,7.27,4.22a5.25,5.25,0,0,0,3.37-1.2l10.53-8.72c8.93,4.62,20,.09,39.24-16.18l117.54-97.94ZM215.59,275.24a6.67,6.67,0,0,1-4.52-1.71l-2.7-2.22-13.92,11.52c-.13-.13-.28-.29-.44-.48s-.27-.34-.4-.52l13.87-11.45-1.23-2.89c-2.72-6.47,3.54-16.23,18.62-29l109.45-94.18,19.11,22.58L242.49,259.35c-12.44,10.54-21.49,15.89-26.88,15.89Z" transform="translate(-6.36 -21.92)"/><path class="cls-2" d="M448.14,68.3c-8.24-9.74-13.87-5-13.87-5L342,133c-7.59-6.78-13.87-10.29-16.08-8.42l-9.64,8.17c-3.38,2.87,4.08,17.24,16.67,32.11s25.53,24.6,28.91,21.73l9.64-8.17c2.2-1.86-.2-8.6-5.6-17.15l84.85-78.47s5.66-4.78-2.59-14.52Z" transform="translate(-6.36 -21.92)"/></svg>